<?xml version="1.0" standalone="no"?>
<!DOCTYPE svg PUBLIC "-//W3C//DTD SVG 20010904//EN"
 "http://www.w3.org/TR/2001/REC-SVG-20010904/DTD/svg10.dtd">
<svg version="1.0" xmlns="http://www.w3.org/2000/svg"
 width="500.000000pt" height="500.000000pt" viewBox="0 0 500.000000 500.000000"
 preserveAspectRatio="xMidYMid meet">
<metadata>
Created by potrace 1.11, written by Peter Selinger 2001-2013
</metadata>
<g transform="translate(0.000000,500.000000) scale(0.100000,-0.100000)"
fill="#000000" stroke="none">
<path d="M1522 1940 c-53 -49 -32 -117 45 -146 58 -21 83 -41 83 -65 0 -42
-64 -64 -112 -38 -16 8 -24 8 -35 -3 -22 -23 8 -41 75 -46 50 -4 60 -1 85 22
57 53 26 129 -68 164 -47 17 -50 20 -50 52 0 33 2 35 37 38 20 2 46 -2 57 -8
16 -8 22 -7 30 8 8 16 6 21 -15 31 -41 18 -107 14 -132 -9z"/>
<path d="M1840 1940 c0 -17 7 -20 45 -20 l45 0 0 -140 c0 -133 1 -140 20 -140
19 0 20 7 20 140 l0 140 45 0 c38 0 45 3 45 20 0 19 -7 20 -110 20 -103 0
-110 -1 -110 -20z"/>
<path d="M2243 1936 c-27 -23 -28 -28 -31 -130 l-4 -106 30 -30 c43 -42 107
-43 154 -1 l33 29 0 102 0 102 -33 29 c-43 38 -107 41 -149 5z m116 -25 c32
-20 35 -186 4 -217 -8 -8 -30 -14 -48 -14 -50 0 -65 28 -65 120 0 91 15 120
63 120 18 0 38 -4 46 -9z"/>
<path d="M2590 1800 l0 -160 25 0 c24 0 24 1 27 109 l3 110 61 -107 c44 -77
67 -108 83 -110 21 -3 21 -1 21 157 0 153 -1 161 -20 161 -18 0 -20 -8 -22
-116 l-3 -116 -65 116 c-53 94 -69 116 -87 116 -23 0 -23 -1 -23 -160z"/>
<path d="M2980 1800 c0 -153 1 -160 20 -160 19 0 20 7 20 160 0 153 -1 160
-20 160 -19 0 -20 -7 -20 -160z"/>
<path d="M3190 1800 l0 -160 96 0 c86 0 95 2 92 18 -3 14 -16 18 -71 20 l-67
3 0 49 0 50 55 0 c48 0 55 2 55 20 0 18 -7 20 -55 20 l-55 0 0 50 0 49 67 3
c55 2 68 6 71 21 3 15 -6 17 -92 17 l-96 0 0 -160z"/>
<path d="M1107 1413 c-16 -15 -5 -44 23 -58 39 -20 38 -35 -2 -35 -23 0 -29
-3 -21 -11 6 -6 23 -9 39 -7 40 4 41 47 2 66 -35 16 -36 32 -3 32 14 0 25 5
25 10 0 11 -53 14 -63 3z"/>
<path d="M1240 1410 c0 -5 7 -10 15 -10 11 0 15 -12 15 -50 0 -27 5 -50 10
-50 6 0 10 23 10 50 0 43 3 50 20 50 11 0 20 5 20 10 0 6 -20 10 -45 10 -25 0
-45 -4 -45 -10z"/>
<path d="M1391 1401 c-27 -50 -3 -105 44 -99 36 4 54 43 39 86 -12 35 -67 44
-83 13z m59 -41 c0 -33 -3 -40 -20 -40 -17 0 -20 7 -20 40 0 33 3 40 20 40 17
0 20 -7 20 -40z"/>
<path d="M1540 1360 c0 -33 4 -60 10 -60 6 0 10 17 10 38 l1 37 22 -37 c33
-56 47 -49 47 22 0 33 -4 60 -10 60 -5 0 -10 -19 -10 -42 l0 -43 -26 43 c-14
23 -29 42 -35 42 -5 0 -9 -27 -9 -60z"/>
<path d="M1690 1360 l0 -60 40 0 c22 0 40 5 40 10 0 6 -13 10 -30 10 -20 0
-30 5 -30 15 0 8 9 15 19 15 11 0 23 5 26 10 4 6 -5 10 -19 10 -16 0 -26 6
-26 15 0 10 10 15 30 15 17 0 30 5 30 10 0 6 -18 10 -40 10 l-40 0 0 -60z"/>
<path d="M1915 1410 c3 -5 13 -10 21 -10 10 0 14 -13 14 -50 0 -27 5 -50 10
-50 6 0 10 23 10 50 0 37 4 50 14 50 8 0 18 5 21 10 4 6 -13 10 -45 10 -32 0
-49 -4 -45 -10z"/>
<path d="M2060 1360 c0 -33 4 -60 10 -60 6 0 10 9 10 20 0 11 6 20 14 20 8 0
18 -9 21 -20 3 -11 13 -20 20 -20 12 0 12 5 3 25 -8 18 -8 28 1 39 21 25 -3
56 -44 56 l-35 0 0 -60z m58 23 c-2 -10 -10 -18 -18 -18 -8 0 -16 8 -18 18 -2
12 3 17 18 17 15 0 20 -5 18 -17z"/>
<path d="M2229 1393 c-5 -16 -15 -41 -21 -56 -6 -15 -7 -31 -3 -35 4 -4 10 -1
12 6 6 15 45 16 61 0 6 -6 14 -10 16 -7 8 7 -36 119 -46 119 -5 0 -13 -12 -19
-27z m31 -39 c0 -8 -4 -14 -10 -14 -5 0 -10 9 -10 21 0 11 5 17 10 14 6 -3 10
-13 10 -21z"/>
<path d="M2350 1360 l0 -60 33 0 c42 0 57 15 57 60 0 45 -15 60 -57 60 l-33 0
0 -60z m65 0 c0 -29 -4 -36 -22 -38 -21 -3 -23 1 -23 38 0 37 2 41 23 38 18
-2 22 -9 22 -38z"/>
<path d="M2500 1360 l0 -60 40 0 c22 0 40 5 40 10 0 6 -13 10 -30 10 -20 0
-30 5 -30 15 0 8 9 15 19 15 11 0 23 5 26 10 4 6 -5 10 -19 10 -16 0 -26 6
-26 15 0 10 10 15 30 15 17 0 30 5 30 10 0 6 -18 10 -40 10 l-40 0 0 -60z"/>
<path d="M2730 1361 c0 -34 4 -61 10 -61 6 0 10 8 10 18 0 11 12 22 31 29 25
10 30 16 27 40 -3 24 -8 28 -40 31 l-38 3 0 -60z m60 25 c0 -8 -7 -17 -16 -20
-23 -9 -24 -8 -24 14 0 13 7 20 20 20 11 0 20 -6 20 -14z"/>
<path d="M2870 1360 l0 -60 35 0 c19 0 35 5 35 10 0 6 -11 10 -25 10 -23 0
-25 3 -25 50 0 28 -4 50 -10 50 -6 0 -10 -27 -10 -60z"/>
<path d="M3016 1364 c-10 -31 -14 -59 -10 -62 4 -4 9 -1 11 6 5 14 53 17 53 2
0 -5 7 -10 15 -10 12 0 10 11 -7 60 -12 33 -27 60 -33 60 -6 0 -19 -25 -29
-56z m44 -16 c0 -5 -6 -8 -14 -8 -9 0 -12 7 -9 21 4 16 8 17 14 7 5 -7 9 -16
9 -20z"/>
<path d="M3145 1410 c3 -5 13 -10 21 -10 10 0 14 -13 14 -50 0 -27 5 -50 10
-50 6 0 10 23 10 50 0 37 4 50 14 50 8 0 18 5 21 10 4 6 -13 10 -45 10 -32 0
-49 -4 -45 -10z"/>
<path d="M3290 1360 c0 -33 4 -60 10 -60 6 0 10 11 10 25 0 18 5 25 19 25 28
0 36 18 9 22 -35 5 -34 28 1 28 17 0 31 5 31 10 0 6 -18 10 -40 10 l-40 0 0
-60z"/>
<path d="M3434 1406 c-3 -7 -4 -33 -2 -57 3 -40 6 -44 31 -47 16 -2 35 2 43 9
17 14 19 80 2 97 -16 16 -67 15 -74 -2z m61 -46 c0 -29 -4 -36 -22 -38 -21 -3
-23 1 -23 38 0 37 2 41 23 38 18 -2 22 -9 22 -38z"/>
<path d="M3580 1360 c0 -33 4 -60 10 -60 6 0 10 9 10 20 0 11 6 20 14 20 8 0
18 -9 21 -20 3 -11 13 -20 20 -20 12 0 12 5 3 25 -8 18 -8 28 1 39 21 25 -3
56 -44 56 l-35 0 0 -60z m58 23 c-2 -10 -10 -18 -18 -18 -8 0 -16 8 -18 18 -2
12 3 17 18 17 15 0 20 -5 18 -17z"/>
<path d="M3720 1360 c0 -47 3 -60 15 -60 10 0 15 10 15 32 0 30 1 31 15 12 15
-19 15 -19 30 0 14 19 15 18 15 -12 0 -22 5 -32 15 -32 12 0 15 13 15 60 0 69
-17 80 -42 28 l-16 -33 -18 32 c-30 51 -44 42 -44 -27z"/>
</g>
</svg>
